<?xml version="1.0" encoding="utf-8" ?>
<svg baseProfile="full" height="300mm" version="1.1" viewBox="0,0,200,300" width="200mm" xmlns="http://www.w3.org/2000/svg" xmlns:ev="http://www.w3.org/2001/xml-events" xmlns:xlink="http://www.w3.org/1999/xlink"><defs /><rect fill="#222222" height="300" width="200" x="0" y="0" /><text fill="#FFFFFF" style="font-size:12px; font-family:Arial; font-weight:bold;" x="10" y="20">MY TRACKS</text><text fill="#FFFFFF" style="font-size:4px; font-family:Arial" x="10" y="280">ATHLETE</text><text fill="#FFFFFF" style="font-size:9px; font-family:Arial" x="10" y="290">John Doe</text><text fill="#FFFFFF" style="font-size:4px; font-family:Arial" x="120" y="280">STATISTICS</text><text fill="#FFFFFF" style="font-size:3px; font-family:Arial" x="120" y="285">Number: 1</text><text fill="#FFFFFF" style="font-size:3px; font-family:Arial" x="120" y="290">Weekly: 1.0</text><text fill="#FFFFFF" style="font-size:3px; font-family:Arial" x="141" y="285">Total: 4.0 km</text><text fill="#FFFFFF" style="font-size:3px; font-family:Arial" x="141" y="290">Avg: 4.0 km</text><text fill="#FFFFFF" style="font-size:3px; font-family:Arial" x="167" y="285">Min: 4.0 km</text><text fill="#FFFFFF" style="font-size:3px; font-family:Arial" x="167" y="290">Max: 4.0 km</text><polyline fill="none" points="150.43103448301554,96.4144348182017 134.6034482754767,97.63003960729111 128.24137931037694,96.00923298415728 124.36206896509975,89.72858937643468 104.5,93.17281682230532 95.5,91.34940336155705 88.82758620753884,95.19882896076888 66.17241379339248,89.32338558346964 45.68965517170727,94.99622788035776 28.0,106.74704146222211 23.03448275849223,114.44579621718731 26.448275862261653,115.45878707326483 53.13793103490025,147.06372902542353 34.67241379339248,161.4477903440129 27.84482758678496,170.76696147152688 22.258620689623058,181.70677787915338 19.0,208.44818699697498 43.05172413773835,210.67661441653036 92.86206896509975,204.19390649860725 91.15517241414636,158.81410016550217 88.67241379339248,152.128556414973 91.15517241414636,152.73633445554879 91.0,150.71040661574807 78.89655172359198,149.08966220763978 60.12068965565413,154.96485165087506 60.896551724523306,151.92596367548686 165.17241379246116,150.9129995336989 170.2931034490466,152.128556414973 177.27586206886917,168.1332890407648 180.53448275942355,170.15919135604054 178.98275862075388,161.24519896996208 180.06896551698446,169.34883078595158 174.32758620753884,164.6892482942203 175.72413793113083,165.90479306702036 181.0,157.1933652550215 175.56896551791579,161.04260756704025 173.08620689623058,169.95660125813447 173.7068965518847,165.0944300038973 174.94827586226165,170.15919135604054 177.27586206886917,167.32292728417087 170.2931034490466,141.39110032608733 151.05172413773835,143.21444780286402 138.32758620660752,141.18850601336453 138.94827586226165,120.52373022132087 149.5,115.05359082017094 150.74137931037694,103.30284782603849 147.94827586226165,97.63003960729111" stroke="#4DD2FF" stroke-linecap="round" stroke-linejoin="round" stroke-width="0.5"><title>2021-03-24 4.0km</title></polyline></svg>